<svg width="21" height="20" viewBox="0 0 21 20" fill="none" xmlns="http://www.w3.org/2000/svg">
<path d="M9.09961 15H11.0996V11H15.0996V9H11.0996V5H9.09961V9H5.09961V11H9.09961V15ZM10.0996 20C8.71628 20 7.41628 19.7375 6.19961 19.2125C4.98294 18.6875 3.92461 17.975 3.02461 17.075C2.12461 16.175 1.41211 15.1167 0.887109 13.9C0.362109 12.6833 0.0996094 11.3833 0.0996094 10C0.0996094 8.61667 0.362109 7.31667 0.887109 6.1C1.41211 4.88333 2.12461 3.825 3.02461 2.925C3.92461 2.025 4.98294 1.3125 6.19961 0.7875C7.41628 0.2625 8.71628 0 10.0996 0C11.4829 0 12.7829 0.2625 13.9996 0.7875C15.2163 1.3125 16.2746 2.025 17.1746 2.925C18.0746 3.825 18.7871 4.88333 19.3121 6.1C19.8371 7.31667 20.0996 8.61667 20.0996 10C20.0996 11.3833 19.8371 12.6833 19.3121 13.9C18.7871 15.1167 18.0746 16.175 17.1746 17.075C16.2746 17.975 15.2163 18.6875 13.9996 19.2125C12.7829 19.7375 11.4829 20 10.0996 20ZM10.0996 18C12.3329 18 14.2246 17.225 15.7746 15.675C17.3246 14.125 18.0996 12.2333 18.0996 10C18.0996 7.76667 17.3246 5.875 15.7746 4.325C14.2246 2.775 12.3329 2 10.0996 2C7.86628 2 5.97461 2.775 4.42461 4.325C2.87461 5.875 2.09961 7.76667 2.09961 10C2.09961 12.2333 2.87461 14.125 4.42461 15.675C5.97461 17.225 7.86628 18 10.0996 18Z" fill="#425565"/>
</svg>
